<svg xmlns="http://www.w3.org/2000/svg" viewBox="0 0 512 512" width="512" height="512">
  <defs>
    <linearGradient id="wG" x1="0" y1="0" x2="1" y2="0">
      <stop offset="0%" stop-color="#fbbf24"/>
      <stop offset="60%" stop-color="#d97706"/>
      <stop offset="100%" stop-color="#e879a8"/>
    </linearGradient>
  </defs>
  <!-- Subtle violet glow -->
  <circle cx="256" cy="256" r="180" fill="#7c3aed" opacity="0.12"/>
  <!-- Bold EEG wave -->
  <path d="M70,256 C90,256 110,256 130,256 C150,256 160,180 185,150 C210,120 225,290 250,330 C275,370 285,140 310,100 C335,60 350,370 375,400 C400,430 410,200 430,170 C445,148 460,256 480,256"
        fill="none" stroke="url(#wG)" stroke-width="20" stroke-linecap="round" stroke-linejoin="round"/>
  <!-- Large nodes -->
  <circle cx="185" cy="150" r="18" fill="#fbbf24"/>
  <circle cx="310" cy="100" r="22" fill="#e879a8"/>
  <circle cx="430" cy="170" r="18" fill="#fbbf24"/>
  <!-- Connection lines -->
  <line x1="185" y1="150" x2="310" y2="100" stroke="#e879a8" stroke-width="3" opacity="0.35"/>
  <line x1="310" y1="100" x2="430" y2="170" stroke="#e879a8" stroke-width="3" opacity="0.35"/>
</svg>
